<?xml version="1.0" standalone="no"?>
<!DOCTYPE svg PUBLIC "-//W3C//DTD SVG 1.1//EN" "http://www.w3.org/Graphics/SVG/1.1/DTD/svg11.dtd" >
<!--
2013-9-30: Created.
-->
<svg>
<metadata>
Created by iconfont
</metadata>
<defs>

<font id="iconfont" horiz-adv-x="1024" >
  <font-face
    font-family="iconfont"
    font-weight="500"
    font-stretch="normal"
    units-per-em="1024"
    ascent="896"
    descent="-128"
  />
    <missing-glyph />
    
    <glyph glyph-name="applyMainPush" unicode="&#58931;" d="M453.5 727.4c0-132.7-84-216.5-120.1-246.4l-9.6-7.9-8.4 9.2c-5 5.5-25.7 11.1-40.9 11.1H111.3c-7.6 0-14.2-6.6-14.2-14.2v-489.8c0-9.4 4.8-14.2 14.2-14.2h517.1c175.8 0 228.5 93.4 286.7 316.8 19 72.7 15.2 126.8-11.1 160.9-27.3 35.3-73.7 42.7-107.9 42.7-17.3 0-29.4-2-29.5-2l-2.2-0.2H609.7l6.4 17.5c0.3 0.7 26 71.5 26 113.1 0 152.3-78.6 168.8-112.3 168.8-6.6 0-10.7-0.7-10.8-0.7l-2.1-0.2c-6.5 0-63.4-2.6-63.4-64.5zM287.6 3.6000000000000227H125.4V465h162.1v-461.4z m241.9 762.7c40 0 87.6-22.4 87.6-129.3 0-76.6-42.1-139.9-68.4-171.9h214c4.5 1 17.4 3.5 33.4 3.5 35.3 0 63.2-11.9 80.5-34.5 23.9-31.1 27-81.1 9-148.7-47.4-178.5-104.7-281.8-257.5-281.8H315.9V431.7l5.7 3.9c1.6 1.1 156.7 107.9 156.7 291.8 0 25.8 17.3 38.9 51.2 38.9z"  horiz-adv-x="1024" />

    
    <glyph glyph-name="tortExamine" unicode="&#58920;" d="M436.736-99.32799999999997H177.664c-49.152 0-89.6 40.448-89.6 89.6V757.76c0 49.152 40.448 89.6 89.6 89.6h638.464c49.152 0 89.6-40.448 89.6-89.6v-316.928c0-15.36-12.8-28.16-28.16-28.16s-28.16 12.8-28.16 28.16V757.76c0 18.432-14.848 33.28-33.28 33.28H177.664c-18.432 0-33.28-14.848-33.28-33.28v-767.488c0-18.432 14.848-33.28 33.28-33.28h259.584c15.36 0 28.16-12.8 28.16-28.16s-12.8-28.16-28.672-28.16zM587.776 611.8399999999999H249.344c-15.36 0-28.16 12.8-28.16 28.16s12.8 28.16 28.16 28.16h338.432c15.36 0 28.16-12.8 28.16-28.16s-12.8-28.16-28.16-28.16z m108.032-146.432H249.344c-15.36 0-28.16 12.8-28.16 28.16s12.8 28.16 28.16 28.16h446.464c15.36 0 28.16-12.8 28.16-28.16s-12.8-28.16-28.16-28.16z m-108.032-145.92H249.344c-15.36 0-28.16 12.8-28.16 28.16s12.8 28.16 28.16 28.16h338.432c15.36 0 28.16-12.8 28.16-28.16s-12.8-28.16-28.16-28.16z m326.656-236.544h-45.056c-11.776 23.552-24.064 53.248-24.064 67.584 0 3.584 0.512 5.12 6.656 13.312 10.752 14.336 27.136 36.352 27.136 91.136 0 58.368-47.616 105.984-105.984 105.984s-105.984-47.616-105.984-105.984c0-54.784 16.384-76.8 27.136-91.136 5.632-7.68 6.656-9.216 6.656-12.8 0-14.336-12.288-44.032-24.064-67.584h-59.392c-35.328 0-64-26.624-64-58.88v-61.952c0-32.768 28.672-58.88 64-58.88h296.96c35.328 0 64 26.624 64 58.88v61.952c0 31.744-28.672 58.368-64 58.368zM750.08 150.52800000000002c0 20.48-9.216 32.256-16.384 42.496-8.704 11.776-17.408 23.04-17.408 61.44 0 31.232 25.088 56.32 56.32 56.32s56.32-25.088 56.32-56.32c0-37.376-8.704-49.664-16.896-61.44l-0.512-0.512c-7.168-9.728-16.384-22.016-16.384-41.984 0-19.968 8.704-45.568 18.944-67.584h-82.944c10.24 22.528 18.944 48.128 18.944 67.584zM602.624 24.063999999999965c0 4.608 6.144 9.728 14.848 9.728h296.96c8.704 0 14.848-5.12 14.848-9.728v-61.952c0-4.608-6.144-9.728-14.848-9.728h-296.96c-8.704 0-14.848 5.12-14.848 9.728v61.952z"  horiz-adv-x="1024" />

    
    <glyph glyph-name="storeTotal" unicode="&#58929;" d="M521.58 379.23699999999997V852.053c250.725-22.642 450.175-222.092 472.817-472.817H521.581z m396.649-76.328H482.793c-21.963 0-39.769 17.805-39.769 39.769V778.141C220.11 758.02 45.342 570.8679999999999 45.342 342.70500000000004c0-241.605 195.898-437.452 437.451-437.451 228.163 0 415.339 174.715 435.436 397.657z"  horiz-adv-x="1024" />

    
    <glyph glyph-name="mainResearchExamine" unicode="&#58921;" d="M436.736-99.32799999999997H177.664c-49.152 0-89.6 40.448-89.6 89.6V757.76c0 49.152 40.448 89.6 89.6 89.6h638.464c49.152 0 89.6-40.448 89.6-89.6v-316.928c0-15.36-12.8-28.16-28.16-28.16s-28.16 12.8-28.16 28.16V757.76c0 18.432-14.848 33.28-33.28 33.28H177.664c-18.432 0-33.28-14.848-33.28-33.28v-767.488c0-18.432 14.848-33.28 33.28-33.28h259.584c15.36 0 28.16-12.8 28.16-28.16s-12.8-28.16-28.672-28.16zM587.776 611.8399999999999H249.344c-15.36 0-28.16 12.8-28.16 28.16s12.8 28.16 28.16 28.16h338.432c15.36 0 28.16-12.8 28.16-28.16s-12.8-28.16-28.16-28.16z m108.032-146.432H249.344c-15.36 0-28.16 12.8-28.16 28.16s12.8 28.16 28.16 28.16h446.464c15.36 0 28.16-12.8 28.16-28.16s-12.8-28.16-28.16-28.16z m-108.032-145.92H249.344c-15.36 0-28.16 12.8-28.16 28.16s12.8 28.16 28.16 28.16h338.432c15.36 0 28.16-12.8 28.16-28.16s-12.8-28.16-28.16-28.16z m326.656-236.544h-45.056c-11.776 23.552-24.064 53.248-24.064 67.584 0 3.584 0.512 5.12 6.656 13.312 10.752 14.336 27.136 36.352 27.136 91.136 0 58.368-47.616 105.984-105.984 105.984s-105.984-47.616-105.984-105.984c0-54.784 16.384-76.8 27.136-91.136 5.632-7.68 6.656-9.216 6.656-12.8 0-14.336-12.288-44.032-24.064-67.584h-59.392c-35.328 0-64-26.624-64-58.88v-61.952c0-32.768 28.672-58.88 64-58.88h296.96c35.328 0 64 26.624 64 58.88v61.952c0 31.744-28.672 58.368-64 58.368zM750.08 150.52800000000002c0 20.48-9.216 32.256-16.384 42.496-8.704 11.776-17.408 23.04-17.408 61.44 0 31.232 25.088 56.32 56.32 56.32s56.32-25.088 56.32-56.32c0-37.376-8.704-49.664-16.896-61.44l-0.512-0.512c-7.168-9.728-16.384-22.016-16.384-41.984 0-19.968 8.704-45.568 18.944-67.584h-82.944c10.24 22.528 18.944 48.128 18.944 67.584zM602.624 24.063999999999965c0 4.608 6.144 9.728 14.848 9.728h296.96c8.704 0 14.848-5.12 14.848-9.728v-61.952c0-4.608-6.144-9.728-14.848-9.728h-296.96c-8.704 0-14.848 5.12-14.848 9.728v61.952z"  horiz-adv-x="1024" />

    
    <glyph glyph-name="overdueTotal" unicode="&#58930;" d="M521.58 379.23699999999997V852.053c250.725-22.642 450.175-222.092 472.817-472.817H521.581z m396.649-76.328H482.793c-21.963 0-39.769 17.805-39.769 39.769V778.141C220.11 758.02 45.342 570.8679999999999 45.342 342.70500000000004c0-241.605 195.898-437.452 437.451-437.451 228.163 0 415.339 174.715 435.436 397.657z"  horiz-adv-x="1024" />

    
    <glyph glyph-name="newProductsTotal" unicode="&#58924;" d="M521.58 379.23699999999997V852.053c250.725-22.642 450.175-222.092 472.817-472.817H521.581z m396.649-76.328H482.793c-21.963 0-39.769 17.805-39.769 39.769V778.141C220.11 758.02 45.342 570.8679999999999 45.342 342.70500000000004c0-241.605 195.898-437.452 437.451-437.451 228.163 0 415.339 174.715 435.436 397.657z"  horiz-adv-x="1024" />

    
    <glyph glyph-name="developExamine" unicode="&#58932;" d="M436.736-99.32799999999997H177.664c-49.152 0-89.6 40.448-89.6 89.6V757.76c0 49.152 40.448 89.6 89.6 89.6h638.464c49.152 0 89.6-40.448 89.6-89.6v-316.928c0-15.36-12.8-28.16-28.16-28.16s-28.16 12.8-28.16 28.16V757.76c0 18.432-14.848 33.28-33.28 33.28H177.664c-18.432 0-33.28-14.848-33.28-33.28v-767.488c0-18.432 14.848-33.28 33.28-33.28h259.584c15.36 0 28.16-12.8 28.16-28.16s-12.8-28.16-28.672-28.16zM587.776 611.8399999999999H249.344c-15.36 0-28.16 12.8-28.16 28.16s12.8 28.16 28.16 28.16h338.432c15.36 0 28.16-12.8 28.16-28.16s-12.8-28.16-28.16-28.16z m108.032-146.432H249.344c-15.36 0-28.16 12.8-28.16 28.16s12.8 28.16 28.16 28.16h446.464c15.36 0 28.16-12.8 28.16-28.16s-12.8-28.16-28.16-28.16z m-108.032-145.92H249.344c-15.36 0-28.16 12.8-28.16 28.16s12.8 28.16 28.16 28.16h338.432c15.36 0 28.16-12.8 28.16-28.16s-12.8-28.16-28.16-28.16z m326.656-236.544h-45.056c-11.776 23.552-24.064 53.248-24.064 67.584 0 3.584 0.512 5.12 6.656 13.312 10.752 14.336 27.136 36.352 27.136 91.136 0 58.368-47.616 105.984-105.984 105.984s-105.984-47.616-105.984-105.984c0-54.784 16.384-76.8 27.136-91.136 5.632-7.68 6.656-9.216 6.656-12.8 0-14.336-12.288-44.032-24.064-67.584h-59.392c-35.328 0-64-26.624-64-58.88v-61.952c0-32.768 28.672-58.88 64-58.88h296.96c35.328 0 64 26.624 64 58.88v61.952c0 31.744-28.672 58.368-64 58.368zM750.08 150.52800000000002c0 20.48-9.216 32.256-16.384 42.496-8.704 11.776-17.408 23.04-17.408 61.44 0 31.232 25.088 56.32 56.32 56.32s56.32-25.088 56.32-56.32c0-37.376-8.704-49.664-16.896-61.44l-0.512-0.512c-7.168-9.728-16.384-22.016-16.384-41.984 0-19.968 8.704-45.568 18.944-67.584h-82.944c10.24 22.528 18.944 48.128 18.944 67.584zM602.624 24.063999999999965c0 4.608 6.144 9.728 14.848 9.728h296.96c8.704 0 14.848-5.12 14.848-9.728v-61.952c0-4.608-6.144-9.728-14.848-9.728h-296.96c-8.704 0-14.848 5.12-14.848 9.728v61.952z"  horiz-adv-x="1024" />

    
    <glyph glyph-name="examineTotal" unicode="&#58925;" d="M521.58 379.23699999999997V852.053c250.725-22.642 450.175-222.092 472.817-472.817H521.581z m396.649-76.328H482.793c-21.963 0-39.769 17.805-39.769 39.769V778.141C220.11 758.02 45.342 570.8679999999999 45.342 342.70500000000004c0-241.605 195.898-437.452 437.451-437.451 228.163 0 415.339 174.715 435.436 397.657z"  horiz-adv-x="1024" />

    
    <glyph glyph-name="chartingTotal" unicode="&#58926;" d="M521.58 379.23699999999997V852.053c250.725-22.642 450.175-222.092 472.817-472.817H521.581z m396.649-76.328H482.793c-21.963 0-39.769 17.805-39.769 39.769V778.141C220.11 758.02 45.342 570.8679999999999 45.342 342.70500000000004c0-241.605 195.898-437.452 437.451-437.451 228.163 0 415.339 174.715 435.436 397.657z"  horiz-adv-x="1024" />

    
    <glyph glyph-name="chartingTotal-copy" unicode="&#58927;" d="M521.58 379.23699999999997V852.053c250.725-22.642 450.175-222.092 472.817-472.817H521.581z m396.649-76.328H482.793c-21.963 0-39.769 17.805-39.769 39.769V778.141C220.11 758.02 45.342 570.8679999999999 45.342 342.70500000000004c0-241.605 195.898-437.452 437.451-437.451 228.163 0 415.339 174.715 435.436 397.657z"  horiz-adv-x="1024" />

    
    <glyph glyph-name="appointStoreExamine" unicode="&#58922;" d="M436.736-99.32799999999997H177.664c-49.152 0-89.6 40.448-89.6 89.6V757.76c0 49.152 40.448 89.6 89.6 89.6h638.464c49.152 0 89.6-40.448 89.6-89.6v-316.928c0-15.36-12.8-28.16-28.16-28.16s-28.16 12.8-28.16 28.16V757.76c0 18.432-14.848 33.28-33.28 33.28H177.664c-18.432 0-33.28-14.848-33.28-33.28v-767.488c0-18.432 14.848-33.28 33.28-33.28h259.584c15.36 0 28.16-12.8 28.16-28.16s-12.8-28.16-28.672-28.16zM587.776 611.8399999999999H249.344c-15.36 0-28.16 12.8-28.16 28.16s12.8 28.16 28.16 28.16h338.432c15.36 0 28.16-12.8 28.16-28.16s-12.8-28.16-28.16-28.16z m108.032-146.432H249.344c-15.36 0-28.16 12.8-28.16 28.16s12.8 28.16 28.16 28.16h446.464c15.36 0 28.16-12.8 28.16-28.16s-12.8-28.16-28.16-28.16z m-108.032-145.92H249.344c-15.36 0-28.16 12.8-28.16 28.16s12.8 28.16 28.16 28.16h338.432c15.36 0 28.16-12.8 28.16-28.16s-12.8-28.16-28.16-28.16z m326.656-236.544h-45.056c-11.776 23.552-24.064 53.248-24.064 67.584 0 3.584 0.512 5.12 6.656 13.312 10.752 14.336 27.136 36.352 27.136 91.136 0 58.368-47.616 105.984-105.984 105.984s-105.984-47.616-105.984-105.984c0-54.784 16.384-76.8 27.136-91.136 5.632-7.68 6.656-9.216 6.656-12.8 0-14.336-12.288-44.032-24.064-67.584h-59.392c-35.328 0-64-26.624-64-58.88v-61.952c0-32.768 28.672-58.88 64-58.88h296.96c35.328 0 64 26.624 64 58.88v61.952c0 31.744-28.672 58.368-64 58.368zM750.08 150.52800000000002c0 20.48-9.216 32.256-16.384 42.496-8.704 11.776-17.408 23.04-17.408 61.44 0 31.232 25.088 56.32 56.32 56.32s56.32-25.088 56.32-56.32c0-37.376-8.704-49.664-16.896-61.44l-0.512-0.512c-7.168-9.728-16.384-22.016-16.384-41.984 0-19.968 8.704-45.568 18.944-67.584h-82.944c10.24 22.528 18.944 48.128 18.944 67.584zM602.624 24.063999999999965c0 4.608 6.144 9.728 14.848 9.728h296.96c8.704 0 14.848-5.12 14.848-9.728v-61.952c0-4.608-6.144-9.728-14.848-9.728h-296.96c-8.704 0-14.848 5.12-14.848 9.728v61.952z"  horiz-adv-x="1024" />

    
    <glyph glyph-name="chartingDelegation" unicode="&#58906;" d="M647.22 32.511999999999944H76.8c0 159.232 83.149 246.63 205.363 313.395 53.76-46.233 117.35-77.056 190.72-77.056 73.319 0 136.909 30.823 185.805 77.056 27.904-17.1 53.914-34.816 77.312-54.016a179.251 179.251 0 0 1-88.78-259.379z m-179.2 313.395c-115.969 0-217.345 97.28-217.345 223.847 0 121.65 96.563 223.846 217.293 223.846s217.344-102.195 217.344-223.846-96.614-223.847-217.344-223.847zM799.642-3.1230000000000473a131.584 131.584 0 1 0 0 263.168 131.584 131.584 0 0 0 0-263.168z m61.798 177.152l-62.925-64.205-35.584 34.509a12.749 12.749 0 0 1-17.715-18.279l44.646-43.315a12.749 12.749 0 0 1 17.972 0.205l71.782 73.216a12.749 12.749 0 0 1-18.176 17.818z"  horiz-adv-x="1024" />

    
    <glyph glyph-name="chartingManager" unicode="&#58907;" d="M224 96c0-9.6 3.2-44.8 6.4-54.4 6.4-48-48-76.8-48-76.8s80-41.6 147.2 0S464 99.20000000000005 368 160c-22.4 12.8-41.6 19.2-57.6 19.2-51.2 0-83.2-44.8-86.4-83.2z m336 124.8l-32-51.2c-51.2-51.2-83.2-32-83.2-32 25.6-67.2 0-112-12.8-128 25.6-6.4 51.2-9.6 80-9.6 54.4 0 102.4 9.6 150.4 32 3.2 0 3.2 3.2 3.2 3.2 22.4 16 12.8 35.2 6.4 44.8-9.6 12.8-12.8 25.6-12.8 41.6 0 54.4 60.8 99.2 137.6 99.2h22.4c12.8 0 38.4-9.6 48 25.6 0 3.2 0 3.2 3.2 6.4 0 3.2 3.2 6.4 3.2 6.4 6.4 16 6.4 16 6.4 19.2 9.6 35.2 16 73.6 16 115.2 0 105.6-41.6 198.4-108.8 268.8C704 499.2 560 220.79999999999995 560 220.79999999999995z m-336 256c0 28.8 22.4 51.2 51.2 51.2 28.8 0 51.2-22.4 51.2-51.2 0-28.8-22.4-51.2-51.2-51.2-28.8 0-51.2 22.4-51.2 51.2z m96 134.4c0 22.4 19.2 41.6 41.6 41.6 22.4 0 41.6-19.2 41.6-41.6 0-22.4-19.2-41.6-41.6-41.6-22.4 0-41.6 19.2-41.6 41.6zM457.6 688c0 12.8 12.8 25.6 25.6 25.6s25.6-12.8 25.6-25.6-12.8-25.6-25.6-25.6-25.6 12.8-25.6 25.6zM128 390.4C128 304 153.6 224 201.6 160c28.8 60.8 112 60.8 124.8 60.8-16 51.2 16 99.2 16 99.2l316.8 422.4c-48 19.2-99.2 32-150.4 32-211.2 3.2-380.8-169.6-380.8-384zM764.8 809.6c-22.4-19.2-390.4-518.4-390.4-518.4-22.4-28.8-12.8-76.8 22.4-99.2l9.6-6.4c35.2-22.4 80-12.8 99.2 25.6l9.6 19.2C569.6 336 790.4 755.2 803.2 784c6.4 19.2-3.2 32-19.2 32-6.4 3.2-12.8 0-19.2-6.4z"  horiz-adv-x="1024" />

    
    <glyph glyph-name="selectionExamine" unicode="&#58908;" d="M436.736-99.32799999999997H177.664c-49.152 0-89.6 40.448-89.6 89.6V757.76c0 49.152 40.448 89.6 89.6 89.6h638.464c49.152 0 89.6-40.448 89.6-89.6v-316.928c0-15.36-12.8-28.16-28.16-28.16s-28.16 12.8-28.16 28.16V757.76c0 18.432-14.848 33.28-33.28 33.28H177.664c-18.432 0-33.28-14.848-33.28-33.28v-767.488c0-18.432 14.848-33.28 33.28-33.28h259.584c15.36 0 28.16-12.8 28.16-28.16s-12.8-28.16-28.672-28.16zM587.776 611.8399999999999H249.344c-15.36 0-28.16 12.8-28.16 28.16s12.8 28.16 28.16 28.16h338.432c15.36 0 28.16-12.8 28.16-28.16s-12.8-28.16-28.16-28.16z m108.032-146.432H249.344c-15.36 0-28.16 12.8-28.16 28.16s12.8 28.16 28.16 28.16h446.464c15.36 0 28.16-12.8 28.16-28.16s-12.8-28.16-28.16-28.16z m-108.032-145.92H249.344c-15.36 0-28.16 12.8-28.16 28.16s12.8 28.16 28.16 28.16h338.432c15.36 0 28.16-12.8 28.16-28.16s-12.8-28.16-28.16-28.16z m326.656-236.544h-45.056c-11.776 23.552-24.064 53.248-24.064 67.584 0 3.584 0.512 5.12 6.656 13.312 10.752 14.336 27.136 36.352 27.136 91.136 0 58.368-47.616 105.984-105.984 105.984s-105.984-47.616-105.984-105.984c0-54.784 16.384-76.8 27.136-91.136 5.632-7.68 6.656-9.216 6.656-12.8 0-14.336-12.288-44.032-24.064-67.584h-59.392c-35.328 0-64-26.624-64-58.88v-61.952c0-32.768 28.672-58.88 64-58.88h296.96c35.328 0 64 26.624 64 58.88v61.952c0 31.744-28.672 58.368-64 58.368zM750.08 150.52800000000002c0 20.48-9.216 32.256-16.384 42.496-8.704 11.776-17.408 23.04-17.408 61.44 0 31.232 25.088 56.32 56.32 56.32s56.32-25.088 56.32-56.32c0-37.376-8.704-49.664-16.896-61.44l-0.512-0.512c-7.168-9.728-16.384-22.016-16.384-41.984 0-19.968 8.704-45.568 18.944-67.584h-82.944c10.24 22.528 18.944 48.128 18.944 67.584zM602.624 24.063999999999965c0 4.608 6.144 9.728 14.848 9.728h296.96c8.704 0 14.848-5.12 14.848-9.728v-61.952c0-4.608-6.144-9.728-14.848-9.728h-296.96c-8.704 0-14.848 5.12-14.848 9.728v61.952z"  horiz-adv-x="1024" />

    
    <glyph glyph-name="tongji" unicode="&#58909;" d="M521.58 379.237V852.053c250.725-22.642 450.175-222.092 472.817-472.817H521.581z m396.649-76.328H482.793c-21.963 0-39.769 17.805-39.769 39.769V778.141C220.11 758.02 45.342 570.868 45.342 342.705c0-241.605 195.898-437.452 437.451-437.451 228.163 0 415.339 174.715 435.436 397.657z"  horiz-adv-x="1024" />

    
    <glyph glyph-name="sellManager" unicode="&#58910;" d="M285.4 420.5c-6.9-5.8-10.3-13.4-10.3-22.7 0-8.1 2.1-14.7 6.4-19.7 4.4-5 13.9-10.9 28.7-17.4 17.8-8 30-15.4 36.6-22.2 6.6-6.7 9.9-15.8 9.9-27.2 0-13.5-5.1-24.6-15.2-33.4-10.1-8.9-24.1-13.2-42-13.2-16.4 0-30.1 3.9-41.2 11.7v18.3c5.8-5 12.7-8.9 21-11.7 8.2-2.9 15.3-4.3 21.2-4.3 26.7 0 40.1 10.9 40.1 32.6 0 7.6-3 14.1-8.8 19.4-5.9 5.3-15.4 10.8-28.7 16.5-16.2 7-27.6 14.4-34.3 22-6.6 7.6-9.9 16.8-9.9 27.7 0 13.8 5.3 25 15.8 33.5 10.6 8.6 23.7 12.8 39.3 12.8 14.6 0 27.1-3 37.6-8.9v-17.4c-12.7 8.2-25.8 12.3-39.3 12.3-11.1-0.1-20.1-3-26.9-8.7z m215.9-151.8v34h-0.7c-5.4-11.6-13.3-20.9-23.7-27.8-10.4-6.9-21.8-10.4-34.5-10.4-16.2 0-29.1 4.5-38.5 13.6-9.4 9.1-14.1 20.6-14.1 34.4 0 29.8 19.7 47.7 59.1 53.9l52.4 7.8c0 36.6-13.8 54.8-41.3 54.8-18.7 0-36.9-7.5-54.7-22.6v18.4c6.3 5 14.9 9.3 25.7 12.9 10.9 3.6 21 5.3 30.6 5.3 17.6 0 31.1-5.5 40.7-16.3 9.5-10.9 14.3-26.7 14.3-47.4v-110.7h-15.3v0.1z m0 91.6l-46.9-6.8c-17.8-2.5-30.4-6.7-37.6-12.4-7.3-5.7-10.9-15-10.9-28 0-10.1 3.4-18.4 10.1-24.9 6.7-6.6 16.1-9.8 28.1-9.8 16.4 0 30 6 40.8 18.1 10.9 12.1 16.4 27.8 16.4 47v16.8z m66.6-91.6V520.8h15.2v-252.1h-15.2z m73.6 84.5c0-23.4 5.4-41.7 16.1-54.9 10.8-13.2 25.7-19.8 44.5-19.8 19.1 0 37.8 7 55.9 21.1v-16.4c-17.6-12.5-37.3-18.7-59-18.7-22 0-39.8 7.8-53.3 23.6-13.6 15.8-20.3 38-20.3 66.7 0 24.8 7 45.8 21.2 62.8s32.6 25.5 55.1 25.5c21.2 0 37.4-7.5 48.8-22.3 11.3-14.9 17-35.2 17-60.8v-6.8h-126z m95.9 59.7c-8.7 10.9-20.8 16.3-36.2 16.3-16 0-29.2-5.3-39.7-16-10.5-10.7-16.9-26-19.4-46h109.5c-0.7 19.6-5.4 34.9-14.2 45.7zM835.4 131.89999999999998l-1.2 19.7-159.4-10.5-53.5-130.9-114.9 76.3-116.9-73-50 132.3-136.2 12.9 33.9 138.5L134 391.6 239.6 483l-30.4 139.4 136.4 9.1 53.5 130.8 115-76.2 116.8 73L681 626.7l136.2-12.8-34-138.5L886.4 381l-105.5-91.5 35.2-161.8 19.3 4.2-1.2 19.7 1.2-19.7 19.4 4.2L824.6 275 946 380.20000000000005 827.3 488.8 866.5 649l-157.2 14.8-58.5 154.4-136.1-85-133.9 88.9-62.4-152.8-157.7-10.4 35.2-161.3L74.5 392.3l118.6-108.5-39.2-160.2 157.3-14.9 58.4-154.4 136.1 85.1 134-88.9 62.4 152.8 157.6 10.3-4.9 22.5-19.4-4.2z"  horiz-adv-x="1024" />

    
    <glyph glyph-name="chartingExamine" unicode="&#58923;" d="M436.736-99.32799999999997H177.664c-49.152 0-89.6 40.448-89.6 89.6V757.76c0 49.152 40.448 89.6 89.6 89.6h638.464c49.152 0 89.6-40.448 89.6-89.6v-316.928c0-15.36-12.8-28.16-28.16-28.16s-28.16 12.8-28.16 28.16V757.76c0 18.432-14.848 33.28-33.28 33.28H177.664c-18.432 0-33.28-14.848-33.28-33.28v-767.488c0-18.432 14.848-33.28 33.28-33.28h259.584c15.36 0 28.16-12.8 28.16-28.16s-12.8-28.16-28.672-28.16zM587.776 611.8399999999999H249.344c-15.36 0-28.16 12.8-28.16 28.16s12.8 28.16 28.16 28.16h338.432c15.36 0 28.16-12.8 28.16-28.16s-12.8-28.16-28.16-28.16z m108.032-146.432H249.344c-15.36 0-28.16 12.8-28.16 28.16s12.8 28.16 28.16 28.16h446.464c15.36 0 28.16-12.8 28.16-28.16s-12.8-28.16-28.16-28.16z m-108.032-145.92H249.344c-15.36 0-28.16 12.8-28.16 28.16s12.8 28.16 28.16 28.16h338.432c15.36 0 28.16-12.8 28.16-28.16s-12.8-28.16-28.16-28.16z m326.656-236.544h-45.056c-11.776 23.552-24.064 53.248-24.064 67.584 0 3.584 0.512 5.12 6.656 13.312 10.752 14.336 27.136 36.352 27.136 91.136 0 58.368-47.616 105.984-105.984 105.984s-105.984-47.616-105.984-105.984c0-54.784 16.384-76.8 27.136-91.136 5.632-7.68 6.656-9.216 6.656-12.8 0-14.336-12.288-44.032-24.064-67.584h-59.392c-35.328 0-64-26.624-64-58.88v-61.952c0-32.768 28.672-58.88 64-58.88h296.96c35.328 0 64 26.624 64 58.88v61.952c0 31.744-28.672 58.368-64 58.368zM750.08 150.52800000000002c0 20.48-9.216 32.256-16.384 42.496-8.704 11.776-17.408 23.04-17.408 61.44 0 31.232 25.088 56.32 56.32 56.32s56.32-25.088 56.32-56.32c0-37.376-8.704-49.664-16.896-61.44l-0.512-0.512c-7.168-9.728-16.384-22.016-16.384-41.984 0-19.968 8.704-45.568 18.944-67.584h-82.944c10.24 22.528 18.944 48.128 18.944 67.584zM602.624 24.063999999999965c0 4.608 6.144 9.728 14.848 9.728h296.96c8.704 0 14.848-5.12 14.848-9.728v-61.952c0-4.608-6.144-9.728-14.848-9.728h-296.96c-8.704 0-14.848 5.12-14.848 9.728v61.952z"  horiz-adv-x="1024" />

    
    <glyph glyph-name="upProduct" unicode="&#58911;" d="M882.4 123.89999999999998H471.5c-9 0-16.1 5.6-18.5 14.2-0.6 2.5-1.8 4.3-2.4 6.8-7.2 21.1-12.6 37.2-17.9 52-2.4 9.3 0 14.9 2.4 18 2.4 3.1 7.2 7.4 15.5 7.4h4.8c1.8 0 3 0 4.8 0.6l48.6 3.7c7.2 0.6 14.3 1.2 20.9 1.2 6.6 0.6 13.8 0.6 20.9 1.2l58.6 3.7c7.2 0.6 14.3 0.6 20.9 1.2 6.6 0.6 13.8 0.6 20.9 1.2l58.6 3.7c7.2 0.6 14.3 1.2 20.9 1.2 6.6 0.6 13.8 0.6 20.9 1.2 12 0.6 23.3 1.9 35.3 2.5 12 0.6 23.3 1.9 35.3 2.5 12.6 0.6 35.1 9.1 39.9 20.2 10.2 21.7 74.2 249.3 96.9 300.7-14.9-6.8-44.1-15.3-60.2-19-7.8-1.9-19.2-3.9-27-5.2-13.8-31.6-60.4-211.4-64-219.5-4.2-10.5-12.6-11.8-16.7-12.4-2.4 0-4.8-0.6-7.8-0.6s-5.4-0.6-8.4-0.6c-13.8-0.6-27.5-1.9-41.3-2.5-11.4-0.6-22.1-1.2-33.5-2.5-11.4-0.6-22.7-1.9-34.1-2.5-8.4-0.6-17.3-1.2-25.7-1.9l-25.1-1.9c-13.2-0.6-25.7-1.9-38.9-2.5-12.6-0.6-25.7-1.9-38.3-2.5-17.9-1.2-35.3-2.5-54.4-3.7l-63.6-4.8c-10.8 0-17.9 5-20.3 13.6-3 8.7-6.6 18-9.6 27.3-3 8.7-6 18-9.6 26.6-16.7 47.7-34.1 89.2-54.4 147.4-2.4 6.2-4.8 13-7.2 19.8-2.4 9.3-1.8 15.9 0 19 3.6 4.3 10.8 5.8 16.7 5.8h89.4c-3 9.3-12 18.1-13.8 28.6-1.8 9.3-0.6 33.3-1.2 42H298.9c-9.6 0-11.4 3-15.5 11.4-4.2 8.3-22.5 51-26.7 62.1-3.6 9.9-20 16.3-30.7 16.3H89.7c-11.4 0-25.9-11.6-25.9-33.7s14-35.6 25.9-35.6h100.4c9 0 16.7-5.6 19.1-14.9 0-0.6 22.1-50.8 32.3-78.1 6-16.1 11.4-32.2 17.3-48.9 6-16.1 11.4-32.8 17.3-48.9 4.8-14.2 10.2-28.5 14.9-43.4 5.4-14.2 10.2-29.1 15.5-43.4 6.6-18 12.6-36.5 19.1-54.5 6.6-18.6 13.2-36.5 19.1-55.1 4.8-14.2 10.2-27.9 14.9-42.1 6.6-18.6 13.2-37.8 19.7-56.4 1.2-3.1 3.6-10.5-1.8-18-5.4-7.4-13.2-7.4-16.7-7.4h-77.7c-3 0-6 0-9-0.6-16.7-2.5-31.1-9.9-42.4-22.3-12.6-13.6-19.1-29.1-20.3-47.7-0.6-14.9 2.4-27.9 10.2-40.3 9.6-15.5 22.1-26 38.9-32.2 5.4-1.9 10.8-3.1 16.1-3.7h10.8c1.2 0 2.4 0.6 3.6 0.6h7.8c17.3 3.1 31.1 11.2 43 25.4 10.2 11.8 15.5 25.4 16.7 42.1 1.2 20.4 17.3 20.4 22.7 20.4h407.1c8.4 0 17.9-5.6 19.1-18.6 0.6-13 4.2-24.2 10.2-34.1 9.6-15.5 22.1-26 38.9-32.2 4.2-1.2 9-2.5 14.9-3.1h3.6c1.2 0 2.4 0 4.2-0.6h4.2c1.2 0 2.4 0.6 3.6 0.6 3.6 0.6 6 0.6 7.2 0.6 39.5 7.4 65.2 44 59.8 83-5.8 35.4-36.3 62.1-71.6 62.1zM644.5 789.5c7.6 0 14.5-3.3 20.9-9.9l139-163.2c3.7-3.9 5-7.4 4-10.4s-3.8-4.5-8.4-4.6H689.3v-203.6C681.4 384.6 667 378 646 378s-35 6.6-42.1 19.8V601.5H492.5c-3.8 0-6.5 1.5-8.1 4.6-1.5 3-1.5 5.9 0 8.5l138.6 165c6.8 6.6 14 9.9 21.5 9.9z"  horiz-adv-x="1024" />

    
    <glyph glyph-name="supplierManager" unicode="&#58912;" d="M946.9 631.7l-71 119.9c-16.8 28.3-50.6 46.2-87.5 46.2H235.1c-36.9 0-70.7-17.8-87.4-46.2l-71-119.9C37.2 553.9 95.6 461.9 193.8 455c54.9-3.9 107.9 17.9 138.9 57.2 5.9 7.6 15.8 12.1 26.4 12.1 10.6 0 20.5-4.5 26.4-12.1 27.5-34.8 73.8-57.6 126.3-57.6s98.8 22.8 126.3 57.6c5.9 7.6 15.8 12.1 26.4 12.1 10.6 0 20.5-4.5 26.4-12.1 30.9-39.2 84-61.1 138.9-57.2 98.2 6.9 156.5 98.9 117.1 176.7z m-103-234c-8.9-1.1-17.8-1.7-26.7-1.7-48 0-94.6 15.9-132.5 45.3-11.9 9.3-28.5 9.3-40.4 0C606.4 412 559.7 396 511.8 396c-48 0-94.6 15.9-132.5 45.3-11.9 9.3-28.5 9.3-40.4 0-45.2-34.9-102.3-50.6-158.9-43.6-9.1 1.1-18.2-1.7-25-7.7-6.8-6.1-10.8-14.8-10.7-23.9v-332.5c0-35.8 28.2-64.8 63.1-64.8h609.1c34.8 0 63.1 29 63.1 64.8V366c-0.2 19.1-16.8 34.2-35.7 31.7zM437.1 42.60000000000002h-36.2V179.89999999999998c-7.2-12.7-14.9-25-22.9-36.7-2.6 15.7-6.5 33.3-11.8 52.9 22 34.3 40.5 78.1 55.6 131.4l37.3-10.9c-6.7-21.6-14-42.2-22-62v-212z m43.5-3c-8 7.6-18 16.3-30 25.9 21 20.2 39.9 42.1 56.7 65.8l33.2-22c-16.8-22.5-36.8-45.8-59.9-69.7z m142.3 0.6c-16.1 22.3-35.2 45.2-57.3 68.5l30.3 21.5c20.4-20.2 40.8-41.6 61.1-64.4l-34.1-25.6z m34.9 95H450v37.6h41.5v62.9h-32v37.6h32v52.9h40v-52.9H577v52.9h40v-52.9h32.6v-37.6H617v-62.9h40.9v-37.6zM531.4 235.70000000000005H577v-62.9h-45.6z"  horiz-adv-x="1024" />

    
    <glyph glyph-name="chartingTimeExchange" unicode="&#58913;" d="M416.037-32.037000000000035a416.037 416.037 0 1 0 0 832.074 416.037 416.037 0 0 0 0-832.074z m0 64.074a351.963 351.963 0 1 1 0 703.926 351.963 351.963 0 0 1 0-703.926z m118.564 214.6a32.037 32.037 0 0 0-45.202-45.275l-128 128a32.037 32.037 0 0 0-9.362 22.675V543.963a31.963 31.963 0 1 0 64 0v-178.76L534.6 246.56399999999996zM799.963 650.6800000000001c-17.627 0-31.963 19.09-31.963 42.642 0 23.552 14.336 42.642 32.037 42.642h175.981c17.628 0 31.964-19.017 31.964-42.642 0-23.552-14.336-42.642-31.964-42.642H800.037zM896 330.606c-17.7 0-32.037 19.09-32.037 42.642 0 23.552 14.336 42.642 32.037 42.642h80.018c17.628 0 31.964-19.017 31.964-42.642 0-23.552-14.336-42.642-31.964-42.642H896z m-128-320c-17.7 0-32.037 19.09-32.037 42.642 0 23.552 14.336 42.715 32.037 42.715h208.018c17.628 0 31.964-19.163 31.964-42.715 0-23.552-14.336-42.642-31.964-42.642H768z"  horiz-adv-x="1024" />

    
    <glyph glyph-name="pieShowManager" unicode="&#58914;" d="M775.033 779.508a43.945 43.945 0 0 0 35.156-17.578l109.863-146.492a43.945 43.945 0 0 0 8.79-26.367v-270.989h-65.919V581.7760000000001l-98.877 131.836H302.62l-98.877-131.814v-505.943h329.59v-65.917H181.771a43.945 43.945 0 0 0-43.945 43.945V589.049a43.945 43.945 0 0 0 8.789 26.367L256.478 761.9300000000001a43.945 43.945 0 0 0 35.156 17.578h483.399zM906.868 603.727v-65.918h-747.07v65.918z m-417.48-153.809V384H291.634v65.918z m471.687-316.406L814.583 23.648000000000025a10.986 10.986 0 0 0-17.578 8.79V252.164a10.986 10.986 0 0 0 17.578 8.79L961.075 151.09000000000003a10.986 10.986 0 0 0 0-17.578zM577.279 186.24599999999998h241.699v-65.918h-241.7z"  horiz-adv-x="1080" />

    
    <glyph glyph-name="productManager" unicode="&#58915;" d="M349.763 15.576999999999998c2.194 1.901 3.876 3.876 5.851 5.778l0.439 0.585c-7.973-7.68-8.338-8.338-6.217-6.363zM450.552 382.528L158.717 520.765l-0.95 0.439c-13.166 5.851-26.259 8.777-38.839 8.777a63.048 63.048 0 0 1-42.276-15.067A50.102 50.102 0 0 1 59.83 477.1v-373.022c0-15.433 6.802-32.621 19.163-48.273 12.068-15.36 28.671-28.233 46.81-36.279L417.42-118.71000000000004l0.877-0.512h0.22c13.238-5.851 26.33-8.777 38.765-8.777 16.456 0 31.45 5.266 42.349 14.994a50.102 50.102 0 0 1 16.822 37.887V297.68399999999997c0 15.579-6.875 32.694-19.163 48.346a126.096 126.096 0 0 1-46.81 36.351v0.147z m616.51 132.386a62.902 62.902 0 0 1-42.276 14.994c-12.654 0-25.6-2.926-38.839-8.777L693.235 382.528c-18.139-8.119-34.669-21.065-46.81-36.352-12.288-15.652-19.017-32.913-19.017-48.346v-372.876c0-14.774 5.924-28.232 16.822-37.887a62.975 62.975 0 0 1 42.13-14.994h0.22c13.457 0.22 26.842 3.292 38.837 8.777l291.396 138.75c18.14 8.045 34.742 20.991 46.81 36.278 12.288 15.652 19.09 32.913 19.09 48.42l1.098 372.875a50.248 50.248 0 0 1-16.823 37.814zM963.273 636.329c25.818 11.702 40.447 30.646 40.374 51.71-0.22 20.92-14.848 39.497-40.228 50.688L639.11 883.913A160.18 160.18 0 0 1 575.624 895.98c-24.722 0-48.566-4.608-67.071-13.165L180.66 731.413c-25.673-11.85-40.375-30.72-40.228-51.785 0.146-20.918 14.774-39.423 40.154-50.613l324.383-145.26c12.434-5.558 27.574-9.288 43.812-10.97l-1.17-1.098h20.918c24.649 0 48.42 4.681 67.07 13.166l327.748 151.403z"  horiz-adv-x="1097" />

    
    <glyph glyph-name="developNewProducts" unicode="&#58916;" d="M987.04 362.79200000000003c-15.951 18.618-12.415 26.62 0.947 42.956 69.21 84.716 31.696 201.788-74.55 229.604-26.705 6.985-38.047 14.813-28.855 37.193C887.36 779.94 783.764 852.205 682.875 814.66c-23.697-8.815-32.08-6.967-46.299 13.836-61.223 89.51-188.549 89.59-249.31-0.046-14.453-21.302-23.543-22.162-46.413-13.935-103.4 37.228-208.124-36.36-201.084-142.258 1.774-26.523-6.729-30.735-29.426-36.824C4.276 606.9300000000001-34.412 488.055 35.925 405.64c15.47-18.123 13.656-25.996-0.449-43.293-70.264-86.13-30.09-202.613 79.444-230.943 20.223-5.23 26.623-9.243 25.28-31.722-6.748-112.214 95.964-184.444 205.302-144.714 20.503 7.474 27.514 5.58 39.599-12.37 63.32-94.021 190.484-93.64 253.87 0.987 12.649 18.874 19.977 18.476 39.684 11.11 108.264-40.473 214.39 35.934 204.702 147.362-1.786 20.577 3.608 23.863 22.703 28.612 112.563 27.945 154.277 146.564 80.98 232.123zM214.635 177.79399999999998l-58.778 168.943c-5.088 14.651 0.203 24.952 15.841 30.861 8.91 1.167 16.832-0.137 23.728-3.87l145.283-92.081 1.251 0.417-39.036 112.224c-5.094 14.652 0.198 24.953 15.842 30.879 15.358 4.114 25.992-1.052 31.941-15.43l58.743-168.945c4.003-14.153-1.552-23.656-16.633-28.532-8.383-2.727-16.022-2.202-22.93 1.595l-144.888 90.879-1.251-0.4L262.37 193.26c3.984-14.16-1.557-23.657-16.634-28.557-15.906-5.165-26.288-0.798-31.1 13.09zM436.72 250.89999999999998l-56.748 163.14c-5.638 16.216-0.63 27.26 15.033 33.188l80.433 26.002c13.675 3.588 23.494-0.56 29.48-12.35 3.127-14.432-2-23.82-15.393-28.157l-56.562-18.286 14.895-42.813 52.794 17.054c14.799 3.062 25.146-1.305 31.133-13.102 2.858-13.662-2.662-23.165-16.634-28.533l-52.794-17.077 15.694-45.113 59.09 19.083c14.518 3.824 24.338-0.319 29.479-12.34 3.127-14.426-2.002-23.814-15.393-28.152l-82.95-26.829c-15.391-4.132-25.906 0.652-31.557 14.285z m178.89 56.54l-97.827 148.59c-2.763 2.52-4.381 5.848-4.878 10.025-3.194 11.831 2.068 20.803 15.788 26.955 13.392 4.321 24.753-0.156 34.047-13.449l69.852-116.436 1.276 0.415-3.609 143.006c0.431 12.131 6.813 20.647 19.114 25.476 12.001 3.027 22.386-0.063 31.169-9.214l86.55-116.21 1.277 0.409-15.823 133.895c-3.146 14.442 2.696 24.483 17.507 30.127 13.92 2.773 23.745-1.322 29.461-12.34 1.361-3.887 2.115-7.504 2.367-10.838l16.135-175.004c-1.042-15.783-9.107-26.13-24.188-30.97-16.785-5.437-29.93-2.41-39.535 9.081l-77.538 102.363 2.133-126.764c-1.306-15.004-9.49-24.935-24.59-29.811-17.62-5.66-30.532-2.118-38.688 10.694z m0 0"  horiz-adv-x="1024" />

    
    <glyph glyph-name="mainResearch" unicode="&#58917;" d="M62.578 888.604c0-4.55-6.258-13.653-14.222-21.048L34.133 854.47v-430.08c0-415.289 0.57-430.649 11.378-444.302l10.809-14.222 186.027-1.707c122.31-1.138 187.733 0 191.715 3.982 3.982 3.982 0 11.947-13.653 25.031-10.809 10.24-24.462 28.445-30.72 39.823-6.258 11.377-13.085 21.048-15.36 21.048-2.845 0-4.551 2.845-4.551 6.258 0 3.414-3.414 14.222-7.965 23.894-27.306 62.008-32.995 134.257-15.36 200.248 9.103 32.427 39.823 97.28 50.063 106.383 13.084 10.809 8.533 21.617-9.103 21.617-30.72 0-52.337 44.374-31.289 64.854 11.947 12.515 23.325 14.222 104.676 15.929 51.2 1.706 76.8 4.55 91.022 11.377 33.565 15.93 100.125 22.756 148.48 15.36 23.325-3.413 48.925-9.67 57.458-14.222s20.48-7.964 27.307-7.964c6.257 0 11.377-2.276 11.377-5.12s6.827-7.396 15.93-10.81c8.533-2.844 30.15-18.772 48.355-35.27 23.324-21.05 32.995-27.307 35.271-21.618 1.707 4.551 2.276 104.676 1.707 222.436L896 861.866 883.484 870.4C876.09 875.52 870.4 883.484 870.4 888.036 870.4 894.862 814.649 896 466.489 896 134.827 896 62.578 894.862 62.578 888.604z m208.213-179.2c9.671-12.515 9.671-35.27 0-47.786s-52.338-18.774-73.387-10.81c-22.186 8.534-31.288 31.29-20.48 50.632 4.552 7.964 14.223 17.067 22.187 19.342 22.187 6.258 63.147 0 71.68-11.378z m473.316 0c10.24-13.653 8.533-39.253-4.551-52.337-10.81-10.81-18.774-11.378-183.183-10.81-95.004 0.57-178.63 2.276-186.595 4.552-29.582 7.964-29.582 61.44 0 69.404 7.964 2.276 93.298 2.845 190.578 1.138 151.324-2.844 177.493-4.551 183.75-11.947z m-476.16-234.95c15.36-16.498 15.929-18.205 7.964-34.134-4.551-8.533-13.653-18.773-19.342-22.187-17.067-9.102-53.476-6.826-67.129 4.551-34.702 27.307-13.084 69.405 35.84 69.405 22.187 0 29.013-2.845 42.667-17.636zM600.178 442.596c-6.258-1.707-13.654-5.12-17.067-7.396-2.844-2.276-14.222-6.258-23.893-8.533-10.24-1.707-18.774-5.69-18.774-8.534 0-2.275-5.688-5.689-13.084-7.395-21.049-5.69-71.111-60.302-88.747-97.28-23.893-50.062-31.857-100.125-23.324-146.205 15.36-81.92 63.715-145.066 137.671-180.906 35.84-17.067 42.098-18.205 100.124-18.205 57.458 0 64.854 1.138 98.987 17.067 20.48 9.671 40.96 17.635 46.08 17.635 5.12 0 28.445-21.617 52.907-47.786 47.786-52.907 67.698-65.422 87.04-54.614 8.533 3.983 11.946 11.378 11.946 24.463 0 15.36-8.533 26.169-51.2 69.404-34.133 34.133-51.2 55.751-51.2 64.285 0 6.826 1.707 12.515 4.552 12.515 4.55 0 23.893 41.529 35.27 76.8 22.756 68.267-5.688 166.685-64.284 226.418-46.649 47.787-106.95 72.818-171.804 71.68-21.618-0.569-44.942-2.276-51.2-3.413z m138.809-80.783c15.929-9.67 36.409-25.6 46.08-35.84 62.009-67.697 61.44-175.786-0.57-242.346-60.87-65.423-157.013-75.663-232.675-25.031-85.902 57.457-104.106 165.546-42.098 251.448 39.823 55.752 84.765 75.663 159.858 71.112 31.858-2.276 46.65-6.258 69.405-19.343z"  horiz-adv-x="1024" />

    
    <glyph glyph-name="selectionManager" unicode="&#58918;" d="M760.832 725.333H263.211a92.63 92.63 0 0 1-92.544-92.501v-497.579c0-51.029 41.514-92.544 92.544-92.544h225.237a21.333 21.333 0 1 1 0 42.667H263.211a49.92 49.92 0 0 0-49.878 49.877V632.79a49.92 49.92 0 0 0 49.878 49.878h497.621a49.92 49.92 0 0 0 49.835-49.835v-313.259a21.333 21.333 0 1 1 42.666 0V632.832a92.63 92.63 0 0 1-92.501 92.501M383.573 596.9069999999999a21.333 21.333 0 0 1-21.333-21.334v-87.466c0-81.664 66.987-148.096 149.333-148.096s149.334 66.432 149.334 148.053v87.51a21.333 21.333 0 0 1-42.667 0v-87.467c0-58.112-47.787-105.387-106.667-105.387-58.837 0-106.666 47.275-106.666 105.387v87.466a21.333 21.333 0 0 1-21.334 21.334M814.933 251.09299999999996L651.947 93.74000000000001l-62.806 65.066a21.333 21.333 0 0 1-30.72-29.653l77.654-80.427a21.248 21.248 0 0 1 30.208-0.469l178.346 172.16a21.333 21.333 0 1 1-29.653 30.72"  horiz-adv-x="1024" />

    
    <glyph glyph-name="recommendExamine" unicode="&#58919;" d="M436.736-99.32799999999997H177.664c-49.152 0-89.6 40.448-89.6 89.6V757.76c0 49.152 40.448 89.6 89.6 89.6h638.464c49.152 0 89.6-40.448 89.6-89.6v-316.928c0-15.36-12.8-28.16-28.16-28.16s-28.16 12.8-28.16 28.16V757.76c0 18.432-14.848 33.28-33.28 33.28H177.664c-18.432 0-33.28-14.848-33.28-33.28v-767.488c0-18.432 14.848-33.28 33.28-33.28h259.584c15.36 0 28.16-12.8 28.16-28.16s-12.8-28.16-28.672-28.16zM587.776 611.8399999999999H249.344c-15.36 0-28.16 12.8-28.16 28.16s12.8 28.16 28.16 28.16h338.432c15.36 0 28.16-12.8 28.16-28.16s-12.8-28.16-28.16-28.16z m108.032-146.432H249.344c-15.36 0-28.16 12.8-28.16 28.16s12.8 28.16 28.16 28.16h446.464c15.36 0 28.16-12.8 28.16-28.16s-12.8-28.16-28.16-28.16z m-108.032-145.92H249.344c-15.36 0-28.16 12.8-28.16 28.16s12.8 28.16 28.16 28.16h338.432c15.36 0 28.16-12.8 28.16-28.16s-12.8-28.16-28.16-28.16z m326.656-236.544h-45.056c-11.776 23.552-24.064 53.248-24.064 67.584 0 3.584 0.512 5.12 6.656 13.312 10.752 14.336 27.136 36.352 27.136 91.136 0 58.368-47.616 105.984-105.984 105.984s-105.984-47.616-105.984-105.984c0-54.784 16.384-76.8 27.136-91.136 5.632-7.68 6.656-9.216 6.656-12.8 0-14.336-12.288-44.032-24.064-67.584h-59.392c-35.328 0-64-26.624-64-58.88v-61.952c0-32.768 28.672-58.88 64-58.88h296.96c35.328 0 64 26.624 64 58.88v61.952c0 31.744-28.672 58.368-64 58.368zM750.08 150.52800000000002c0 20.48-9.216 32.256-16.384 42.496-8.704 11.776-17.408 23.04-17.408 61.44 0 31.232 25.088 56.32 56.32 56.32s56.32-25.088 56.32-56.32c0-37.376-8.704-49.664-16.896-61.44l-0.512-0.512c-7.168-9.728-16.384-22.016-16.384-41.984 0-19.968 8.704-45.568 18.944-67.584h-82.944c10.24 22.528 18.944 48.128 18.944 67.584zM602.624 24.063999999999965c0 4.608 6.144 9.728 14.848 9.728h296.96c8.704 0 14.848-5.12 14.848-9.728v-61.952c0-4.608-6.144-9.728-14.848-9.728h-296.96c-8.704 0-14.848 5.12-14.848 9.728v61.952z"  horiz-adv-x="1024" />

    
    <glyph glyph-name="upProductTotal" unicode="&#58928;" d="M521.58 379.23699999999997V852.053c250.725-22.642 450.175-222.092 472.817-472.817H521.581z m396.649-76.328H482.793c-21.963 0-39.769 17.805-39.769 39.769V778.141C220.11 758.02 45.342 570.8679999999999 45.342 342.70500000000004c0-241.605 195.898-437.452 437.451-437.451 228.163 0 415.339 174.715 435.436 397.657z"  horiz-adv-x="1024" />

    
    <glyph glyph-name="merchantManager" unicode="&#58905;" d="M976.896 147.336a24.937 24.937 0 0 0-24.937-24.878H686.08a24.937 24.937 0 0 0 0 49.815h265.818c13.734 0 24.938-11.144 24.938-24.937z m0 139.565a24.937 24.937 0 0 1-24.937 24.937H769.205a24.937 24.937 0 0 1 0-49.875h182.754a24.937 24.937 0 0 1 24.937 24.938zM619.701 44.33299999999997c0-14.336-11.505-25.901-25.66-25.901a25.78 25.78 0 0 0-25.66 25.901l-0.061 0.301h-0.723a205.944 205.944 0 0 1-197.27 181.49c-2.169-0.121-4.337-0.362-6.566-0.362-2.169 0-4.337 0.24-6.566 0.361a206.005 206.005 0 0 1-197.21-181.489h-0.602v-0.3c0-14.337-11.445-25.902-25.66-25.902a25.78 25.78 0 0 0-25.66 25.901l-0.242 2.41c0 3.373 0.723 6.625 1.867 9.637a258.891 258.891 0 0 0 152.637 201.005 181.61 181.61 0 0 0-78.487 149.806c0 100.231 80.595 181.428 179.923 181.428 99.388 0 179.983-81.257 179.983-181.428a181.55 181.55 0 0 0-78.487-149.685A258.952 258.952 0 0 0 618.315 53.90999999999997a25.78 25.78 0 0 0 1.145-7.108l0.24-2.41z m-256 233.231A129.084 129.084 0 0 1 492.303 407.13a129.084 129.084 0 0 1-128.542 129.627A129.084 129.084 0 0 1 235.159 407.13c0-71.56 57.585-129.566 128.602-129.566z m658.01 176.55v-450.62c0-31.564-26.503-57.164-59.271-57.164H117.459c-32.768 0-59.332 25.6-59.332 57.164V603.558c0 31.563 26.564 57.163 59.332 57.163h460.74a269.854 269.854 0 0 0 6.625 58.127H66.44C29.696 718.908 0 689.092 0 652.408v-697.765c0-36.744 29.756-66.44 66.44-66.44h946.959c36.743 0 66.5 29.757 66.5 66.44V523.565a270.336 270.336 0 0 0-58.188-69.451z m62.524 204.92a236.966 236.966 0 1 0-473.87 0 236.966 236.966 0 0 0 473.87 0z m-41.562 0a195.403 195.403 0 1 1-390.807 0 195.403 195.403 0 0 1 390.807 0z m-153.42-105.773c0-6.987 2.53-11.866 7.53-14.637 5.783-3.253 16.926-4.819 33.551-4.819 12.288 0 21.143 1.506 26.504 4.518 7.469 4.216 11.203 13.01 11.203 26.262V693.85a23.672 23.672 0 0 1-5.903 16.204c-4.216 4.818-11.023 7.228-20.36 7.228h-26.503a54.573 54.573 0 0 1 5.662 15.36c0.06 1.265-0.481 2.77-1.626 4.457h47.405c3.614 0 6.626 1.024 9.036 3.072 3.011 2.65 4.517 6.626 4.517 12.047a17.77 17.77 0 0 1-4.036 11.927 12.047 12.047 0 0 1-9.517 4.216h-89.75a46.803 46.803 0 0 1-8.192 17.65 18.552 18.552 0 0 1-14.276 5.601 31.684 31.684 0 0 1-16.264-4.156c-3.614-2.168-5.42-5.06-5.42-8.734 0-2.108 0.602-4.88 1.927-8.493a37.948 37.948 0 0 0 0.602-1.868h-91.919a11.324 11.324 0 0 1-8.072-3.373 15.782 15.782 0 0 1-5-12.047c0-4.337 1.386-8.192 4.217-11.445 2.59-2.89 5.542-4.397 8.855-4.397h47.586a7.951 7.951 0 0 1-1.687-4.216c0-2.59 2.048-7.77 6.084-15.601h-25.901c-8.554 0-14.999-1.807-19.215-5.662-4.94-4.277-7.41-11.686-7.41-22.167v-143.962c0-3.012 1.025-5.602 3.073-7.83 3.614-3.615 8.433-5.542 14.456-5.542a18.854 18.854 0 0 1 12.77 4.337 11.445 11.445 0 0 1 4.217 9.035V635c3.252-7.35 7.77-11.024 13.432-11.024a15.059 15.059 0 0 1 7.951 2.29 39.876 39.876 0 0 1-0.12-3.374v-39.454c0-15.36 8.011-23.01 24.094-23.01h67.584a26.985 26.985 0 0 1-1.084-7.168z m-78.365 123.242a161.19 161.19 0 0 0-18.854-17.348c-8.433-6.024-13.312-10.12-14.698-12.288v32.045c0 4.819 3.193 7.168 9.638 7.168h35.358a54.814 54.814 0 0 1-11.444-9.577z m19.516 40.779a18.07 18.07 0 0 1 0.3 2.048c0 3.915-2.469 9.878-7.408 17.77h63.85c-5-7.53-7.47-13.674-7.47-18.312l0.18-1.506h-49.392z m44.152-34.696c-4.397-4.337-6.626-8.433-6.626-12.288 0-4.216 4.578-9.637 13.674-16.143l5.42-4.337 5.06-4.035a43.37 43.37 0 0 1-3.252 0.12h-64.753c12.65 12.348 18.974 20.841 18.974 25.6v0.12c0 5.301-3.192 9.819-9.517 13.493a9.336 9.336 0 0 1-1.928 0.964h47.827a22.046 22.046 0 0 1-4.819-3.494z m-41.321-67.644c1.205 1.386 2.47 2.048 3.915 2.048h35.66c5.601 0 8.372-2.229 8.372-6.746l-0.12-15.42c0-3.615-2.109-5.422-6.205-5.422h-37.586a5 5 0 0 0-3.615 1.627 6.867 6.867 0 0 0-1.867 4.819v15.66a5.421 5.421 0 0 0 1.446 3.494z m94.268 71.078c4.036 0 6.024-2.892 6.024-8.855v-26.262a149.384 149.384 0 0 1-22.167 19.817c-11.445 8.674-19.396 13.854-23.974 15.36h40.117z m6.024-104.569c0-6.626-0.723-10.722-2.23-12.288-1.264-1.325-3.192-1.987-5.782-1.987h-0.723a1408.542 1408.542 0 0 1-15.48 1.084c2.59 3.313 3.915 8.433 3.915 15.3v39.333a47.706 47.706 0 0 1-0.542 6.626c4.518-3.253 7.71-4.819 9.698-4.819 3.795 0 7.53 2.41 11.204 7.349v-50.598z"  horiz-adv-x="1084" />

    
    <glyph glyph-name="logisticsManager" unicode="&#58893;" d="M906.24 785.408H458.752c-52.736 0-95.744-43.008-95.744-95.744v-45.568h-97.28c-34.816 0-67.584-15.36-90.112-42.496L44.544 442.88c-17.408-20.992-26.624-47.104-26.624-74.24v-281.088c0-54.784 44.544-99.84 99.84-99.84h67.072c2.048 0 3.584 1.024 5.12 1.024 14.336-46.592 56.832-80.384 108.032-80.384 50.688 0 93.184 33.792 107.52 79.36h225.28c0.512 0 1.024 0.512 2.048 0.512 14.336-46.08 56.832-79.872 108.032-79.872 50.688 0 93.184 33.28 107.52 79.36h53.248c54.784 0 99.84 44.544 99.84 99.84V690.1759999999999c0 52.736-42.496 95.232-95.232 95.232z m-474.624-95.232c0 14.848 12.288 27.136 27.136 27.136H906.24c14.848 0 27.136-12.288 27.136-27.136v-344.064H458.752c-14.848 0-27.136 12.288-27.136 27.136V690.1759999999999zM297.984-22.52800000000002c-25.088 0-45.056 20.48-45.056 45.056 0 25.088 20.48 45.056 45.056 45.056s45.056-20.48 45.056-45.056c0.512-24.576-19.968-45.056-45.056-45.056z m442.88 0c-25.088 0-45.056 20.48-45.056 45.056 0 25.088 20.48 45.056 45.056 45.056 25.088 0 45.056-20.48 45.056-45.056 0-24.576-19.968-45.056-45.056-45.056z m161.28 79.36h-53.248c-14.336 46.08-56.832 79.36-107.52 79.36S648.192 102.39999999999998 633.344 56.32000000000005c-0.512 0-1.024 0.512-2.048 0.512h-225.28c-14.336 46.08-56.832 79.36-107.52 79.36-51.2 0-93.696-33.792-108.032-80.384-2.048 0.512-3.584 1.024-5.12 1.024h-68.096c-17.408 0-31.232 14.336-31.232 31.232V369.15200000000004c0 11.264 4.096 22.016 11.264 30.72l131.072 158.72c9.216 11.264 23.04 17.408 37.376 17.408h97.792v-202.752c0-52.736 43.008-95.744 95.744-95.744h474.624v-189.44c-0.512-17.408-14.848-31.232-31.744-31.232z m-634.88 394.752c14.848-11.776 17.408-32.768 6.144-48.128l-54.784-71.168c-6.656-8.704-16.896-13.312-27.136-13.312-7.168 0-14.848 2.56-20.992 7.168-14.848 11.776-17.408 32.768-6.144 48.128l54.784 71.168c11.776 14.848 33.28 17.408 48.128 6.144z"  horiz-adv-x="1024" />

    
    <glyph glyph-name="logisticsMoney" unicode="&#58894;" d="M1022.31 716.7529999999999c0 26.759-22.3 49.059-49.06 49.059H384.833v-619.005h327.211c15.93 55.43 66.893 96.838 128.056 96.838 61.159 0 112.13-40.771 128.054-96.838h54.155V716.7529999999999zM828.646 447.239v-50.762h-95.89v-96.892h-63.274v96.892H573.94V447.24h95.543v43.482H573.94v52.004h85.269l-85.21 127.242 63.24 0.131 63.962-95.67s62.94 93.382 64.046 95.67h63.241l-84.667-127.373h84.827v-52.004h-95.89v-43.482h95.889zM840.1 171.65200000000004c-47.142 0-85.368-38.225-84.73-84.73 0-46.513 37.589-84.733 84.73-84.733 46.508 0 84.733 37.583 84.733 84.733 0 46.505-37.587 84.73-84.733 84.73z m-680.409 0c-46.513 0-84.739-38.225-84.734-84.73 0-46.513 37.583-84.733 84.734-84.733 46.504 0 84.73 37.583 84.73 84.733 0 46.505-37.588 84.73-84.73 84.73z m85.367 485.465c-134.426 0-243.367-108.942-243.367-242.73v-267.581h29.303c15.93 55.43 67.534 96.838 128.697 96.838 61.154 0 112.758-40.771 128.688-96.838h32.366V657.117h-75.687zM74.952 365.96500000000003v48.423c0 80.908 65.622 145.892 145.893 145.892h24.213v-194.315H74.952z m0 0"  horiz-adv-x="1024" />

    
    <glyph glyph-name="moduleManager" unicode="&#58895;" d="M939.584 654.016h-0.768L529.6 843.2c-11.2 5.184-25.984 4.032-37.632 0.768C488 842.816 90.048 662.4 88 661.568c-5.568-2.752-24-9.6-24-25.6v-8.32a40.832 40.832 0 0 1 0-6.4V120c0-12.032 4.032-12.032 24.768-22.4L489.6-92.79999999999995c7.04-3.328 14.656-5.12 22.4-5.184 4.736 0 9.472 0.64 14.016 1.984a53.568 53.568 0 0 1 10.368 4.8L931.2 93.18399999999997c4.416 2.048 28.8 10.432 28.8 23.616V634.816c0 11.968-17.6 18.368-20.416 19.2zM509.184 782.4l347.584-162.816a1.216 1.216 0 0 0 0-1.984L511.616 456h-0.896L162.816 621.184a1.216 1.216 0 0 0 0 1.984L508.8 782.4h0.384zM128 150.784v414.4a1.216 1.216 0 0 0 1.6 0.832L479.616 400v-417.6L160 134.39999999999998l-32 15.616v0.768z m416-167.552v417.6l350.016 163.584a1.216 1.216 0 0 0 1.6-0.832v-415.616L859.2 130.43200000000002 544-16.76800000000003z"  horiz-adv-x="1024" />

    
    <glyph glyph-name="roleManager" unicode="&#58896;" d="M727.738 303.38300000000004a118.272 118.272 0 1 0 0 236.59 118.272 118.272 0 0 0 0-236.59z m31.79-50.176c92.905-7.494 159.838-48.081 200.798-107.892v-119.296H797.649V201.216a385.862 385.862 0 0 1-38.12 51.991zM401.223 414.394a165.702 165.702 0 1 0 0.046 331.404 165.702 165.702 0 0 0 0-331.404zM64.232 25.926000000000045V175.197c61.813 103.098 174.08 170.729 336.99 170.729 153.414 0 261.818-59.904 325.632-152.902v-167.098H64.233z"  horiz-adv-x="1024" />

    
    <glyph glyph-name="menuManager" unicode="&#58897;" d="M832.2 631.4H192.3c-35.2 0-64 28.8-64 64s28.8 64 64 64h639.8c35.2 0 64-28.8 64-64 0.1-35.2-28.7-64-63.9-64z m0-313.3H196.1c-35.2 0-64 28.8-64 64s28.8 64 64 64h636.1c35.2 0 64-28.8 64-64s-28.8-64-64-64z m0-319H192.3c-35.2 0-64 28.8-64 64s28.8 64 64 64h639.8c35.2 0 64-28.8 64-64 0.1-35.2-28.7-64-63.9-64z"  horiz-adv-x="1024" />

    
    <glyph glyph-name="countryManager" unicode="&#58898;" d="M1021.792 431.552v1.024c-0.608 7.712-1.632 14.848-2.656 22.56v1.024C983.968 704.544 770.56 896 512 896c-282.72 0-512-229.472-512-512s229.472-512 512-512 512 229.472 512 512c0 15.84-1.216 32.32-2.24 47.552zM892.32 644.16c1.024-1.632 2.656-3.648 3.648-5.088 1.024-2.016 2.656-3.648 3.648-5.696 2.656-3.648 4.672-7.104 6.72-10.784 0.608-0.608 1.024-1.632 1.632-2.016l6.112-10.784c0.608-0.608 0.608-1.024 1.024-2.016a459.36 459.36 0 0 0 55.904-178.656c-109.152-18.496-134.144-35.776-144.928-64.448-8.736-22.56-5.696-41.056-0.608-53.664-3.04-3.04-6.72-6.112-9.152-8.736-24-22.56-44.512-42.496-44.512-71.136 0-13.824 3.648-28.256 7.712-43.104 1.632-5.088 3.648-12.192 4.672-17.888-5.088-6.72-12.192-15.84-17.472-29.28-3.04-2.048-6.72-4.672-10.784-7.712-3.04 18.496-3.648 42.08-1.632 50.208 11.776 36.384-2.048 61.984-13.216 76.832a70.656 70.656 0 0 1-1.024 34.336c-7.712 27.232-31.296 44.512-59.968 44.512-10.176 0-19.904-2.048-29.28-4.064-5.088-1.024-10.784-2.656-15.84-3.04h-0.416c-1.632 0-10.784 4.064-22.56 22.976 3.04 9.152 15.84 27.04 20.928 33.728 9.76 13.216 17.888 24 20.544 38.816 2.656 12.8 1.632 26.016 0.608 40.448-0.608 3.648-0.608 9.152-1.024 13.824 11.168 8.736 34.336 30.272 29.28 64.032 0 4.672 2.048 14.432 3.648 21.536 4.672 1.632 9.152 2.656 12.192 3.04 34.336 5.088 47.168 35.36 53.248 53.248 18.912 6.72 58.336 18.912 129.056 38.816 3.648-7.104 7.712-12.608 11.776-18.304zM273.824 412.256c-2.656-3.648-4.672-7.712-6.72-11.168h-5.696c-4.064 0-7.712 0-11.168 0.608-26.624 70.112-50.624 85.984-71.744 91.68-4.672 1.632-9.152 2.016-12.8 3.04-9.76 24.608-34.336 43.104-81.504 59.36 0 0.608 0.416 1.024 0.416 1.632 1.024 3.04 2.656 5.696 3.648 8.128 0.608 1.632 1.632 3.04 2.016 5.088 1.024 1.632 1.632 3.648 2.656 5.088 1.024 2.016 2.016 4.672 3.04 6.72 0 0.608 0.608 1.024 0.608 1.632a465.472 465.472 0 0 0 111.584 145.952c44.512-116.672 63.424-127.04 89.024-132.512 25.6-5.696 63.008-16.864 81.92-24.608-21.536-11.168-42.08-22.56-55.904-35.776-19.104-19.296-52.832-78.848-49.376-124.8zM51.04 384c0 42.496 5.696 83.936 16.864 123.36 25.6-8.736 47.168-19.52 50.624-30.688 9.152-29.664 27.04-27.232 45.536-32.32 18.912-5.696 40.448-67.68 44.512-79.264 4.064-12.192 36.384-14.848 52.64-14.848 16.448 0 51.232-32.32 61.984-43.104s9.152-36.384 2.656-74.176c-6.72-37.792 17.472-43.104 18.912-56.928 1.632-13.216 24-27.04 29.664-44.512s6.72-42.08-4.064-64.448c-10.784-22.976-13.216-52.64-9.152-70.112 1.024-5.696-4.064-22.976-11.776-44.512C175.456 18.49599999999998 51.072 186.81600000000003 51.072 383.96799999999996z m325.216-161.184v1.632c2.656 14.848 5.088 29.664 5.696 44.512l7.712-4.672c4.064-2.656 9.152-5.696 14.432-8.736 3.648-2.048 7.712-3.648 11.168-5.088 6.72-35.776 31.296-47.168 47.168-50.624 6.112-1.632 12.8-2.048 19.904-2.048 5.696 0 10.784 0.608 15.456 0.608-31.52-20.736-56.096-58.144-68.896-87.808a158.208 158.208 0 0 1-6.112 36.384c-6.112 19.52-18.912 33.728-27.04 43.104-1.024 1.024-1.632 2.048-2.656 3.04-4.064 13.824-12.192 23.36-16.864 29.664 0.416-0.608 0.416-0.608 0 0zM512.032-76.76800000000003c-43.488 0-85.984 6.112-126.016 17.472 5.696 19.904 10.176 36.8 11.776 43.104 5.696 19.904 67.68 66.048 72.768 89.024 5.696 22.976 34.752 74.176 63.424 85.984 28.256 12.192 27.232 59.36 9.152 79.264-8.128 9.152-19.52 11.168-31.712 11.168-9.76 0-19.904-1.632-28.672-1.632-3.04 0-6.112 0-8.736 1.024-17.472 4.064-4.064 34.752-10.784 43.104-2.656 3.04-5.696 3.648-9.76 3.648h-6.72c-5.088 0-11.168 0.608-18.912 4.672-15.456 8.128-28.672 20.928-48.576 20.928-2.656 0-5.088 0-8.128-0.608s-5.696-0.608-8.736-0.608c-20.544 0-37.792 12.192-53.248 29.28-17.472 18.912 24 45.536 16.448 61.984-8.128 16.448 14.848 71.136 33.728 90.048s84.96 43.104 89.024 57.92c4.064 14.848-13.216 33.728-27.04 48.576-13.216 14.848-89.024 34.752-113.216 40.448-12.8 3.04-37.408 60.96-57.92 115.648 75.2 50.624 164.832 80.896 261.6 80.896 130.08 0 247.36-54.272 331.296-140.864-58.944-16.864-129.056-37.792-132.512-44.096-6.72-10.784-10.784-38.816-19.904-40.448s-49.6-10.784-51.232-22.976c-1.632-12.192-10.784-44.512-8.128-59.36s-24-19.904-28.256-37.792c-4.064-17.472 2.656-49.6 0-63.424-2.656-13.216-60.352-66.048-37.792-104.864 20.544-35.36 44.512-51.616 68.704-51.616 2.656 0 5.088 0 8.128 0.416 16.448 2.656 29.28 7.104 37.792 7.104 5.696 0 9.152-2.048 10.784-7.712 4.064-14.432-10.784-26.016 0-39.84 10.784-13.408 21.536-21.536 14.848-42.08-6.72-19.904-4.064-70.112 5.696-96.736 9.152-27.04 9.152-43.104 21.536-45.536 1.632-0.608 2.656-0.608 4.064-0.608 11.168 0 24.608 9.152 38.816 26.016 16.448 18.912 32.32 18.912 37.792 37.792 5.696 18.912 22.976 25.6 22.976 44.512s-13.216 52.64-13.216 67.68c0 14.848 63.424 57.92 61.984 75.2-1.632 17.472-18.912 18.912-10.784 40.448 4.064 11.168 53.664 22.56 99.392 30.688-5.28-250.4-209.952-453.248-461.792-453.248z m0 0"  horiz-adv-x="1024" />

    
    <glyph glyph-name="flowManager" unicode="&#58899;" d="M861.184 337.408l-23.04-23.04-90.112 115.2 182.784 1.024V733.184H791.04V826.3679999999999H1024V337.91999999999996H861.184zM302.592 104.96000000000004h418.816V-128H302.08l0.512 232.96z m93.184-139.776h232.96v46.592h-232.96v-46.592z m-93.184 535.04h418.816v-232.96H302.592v232.96z m93.184-139.264h232.96v46.592h-232.96v-46.592zM302.08 896h419.328v-232.96H302.592L302.08 896z m93.696-139.776h232.96V802.816h-232.96v-46.592zM277.504 32.76800000000003l-91.648-114.176-23.04 23.04H0v488.96h232.96v-93.184H93.184v-302.592l184.32-2.048z"  horiz-adv-x="1024" />

    
    <glyph glyph-name="userManager" unicode="&#58900;" d="M502.179 857.367c-131.072 0-237.522-104.168-237.522-232.727S371.06 391.913 502.18 391.913c131.165 0 237.568 104.168 237.568 232.727S633.437 857.367 502.179 857.367z m0 0c-131.072 0-237.522-104.168-237.522-232.727S371.06 391.913 502.18 391.913c131.165 0 237.568 104.168 237.568 232.727S633.437 857.367 502.179 857.367z m-88.995-543.046c-169.472 0-306.874-134.609-306.874-300.59v-19.316c0-67.91 137.402-67.957 306.874-67.957h197.958c169.425 0 306.78 2.514 306.78 67.957V13.730000000000018c0 165.981-137.355 300.59-306.78 300.59H413.184z m0 0"  horiz-adv-x="1024" />

    
    <glyph glyph-name="brandManager" unicode="&#58901;" d="M824.171 39.28499999999997H203.774c-18.412 0-34.044 13.15-37.259 31.269L76.66 580.779c-2.78 15.64 4.67 31.418 18.408 39.309 13.88 7.886 31.122 6.28 43.247-3.946l189.361-161.166 154.592 239.192c13.883 21.62 49.531 21.62 63.411 0l154.586-239.045L889.48 616.29c12.13 10.372 29.52 11.83 43.253 3.945 13.881-7.893 21.182-23.67 18.406-39.309L861.43 70.41099999999994c-3.214-17.977-18.852-31.126-37.259-31.126z m-588.686 75.544h556.977l66.194 375.654-142.168-120.979c-8.331-7.013-19.146-10.082-29.96-8.626-10.806 1.613-20.309 7.748-26.3 16.804L513.97 604.012l-146.255-226.33c-5.997-9.204-15.493-15.341-26.305-16.804-10.954-1.603-21.767 1.613-29.952 8.626L169.29 490.484l66.194-375.655zM824.17-82.86599999999999H203.774c-20.896 0-37.844 16.948-37.844 37.844s16.948 37.843 37.844 37.843h620.399c20.894 0 37.845-16.947 37.845-37.843s-16.952-37.844-37.847-37.844zM2.902 692.653a37.854 37.854 0 1 1 121.133 0 37.854 37.854 0 1 1-121.133 0z m452.292 96.38a37.853 37.853 0 1 1 121.13 0 37.853 37.853 0 1 1-121.13 0z m449.06-92.93a37.854 37.854 0 1 1 121.133 0 37.854 37.854 0 1 1-121.133 0z"  horiz-adv-x="1027" />

    
    <glyph glyph-name="propertyManager" unicode="&#58902;" d="M768 832H192c-70.4 0-128-57.6-128-128v-576c0-70.4 57.6-128 128-128h576c70.4 0 128 57.6 128 128V704c0 70.4-57.6 128-128 128zM288 192c-17.92 0-32 14.08-32 32s14.08 32 32 32 32-14.08 32-32-14.08-32-32-32z m0 192c-17.92 0-32 14.08-32 32s14.08 32 32 32 32-14.08 32-32-14.08-32-32-32z m0 192c-17.92 0-32 14.08-32 32s14.08 32 32 32 32-14.08 32-32-14.08-32-32-32z m384-384H416c-17.92 0-32 14.08-32 32s14.08 32 32 32h256c17.92 0 32-14.08 32-32s-14.08-32-32-32z m0 192H416c-17.92 0-32 14.08-32 32s14.08 32 32 32h256c17.92 0 32-14.08 32-32s-14.08-32-32-32z m0 192H416c-17.92 0-32 14.08-32 32s14.08 32 32 32h256c17.92 0 32-14.08 32-32s-14.08-32-32-32z"  horiz-adv-x="1024" />

    
    <glyph glyph-name="bpmManager" unicode="&#58903;" d="M510.207 609.64c61.62 0 111.574 49.953 111.574 111.574 0 61.62-49.953 111.573-111.574 111.573-61.62 0-111.573-49.953-111.573-111.573 0-61.62 49.954-111.574 111.573-111.574z m0 167.219c30.683 0 55.646-24.963 55.646-55.646s-24.962-55.647-55.646-55.647c-30.683 0-55.645 24.963-55.645 55.647s24.962 55.646 55.645 55.646z m-335.51-463.422c-61.62 0-111.573-49.953-111.573-111.574 0-61.62 49.953-111.574 111.573-111.574s111.574 49.954 111.574 111.574-49.953 111.574-111.574 111.574z m0-167.219c-30.682 0-55.646 24.962-55.646 55.646 0 30.683 24.963 55.646 55.646 55.646s55.646-24.962 55.646-55.646-24.963-55.646-55.646-55.646zM845.95 313.437c-61.62 0-111.573-49.953-111.573-111.574 0-61.62 49.953-111.574 111.573-111.574s111.574 49.954 111.574 111.574-49.953 111.574-111.574 111.574z m0-167.219c-30.683 0-55.646 24.962-55.646 55.646 0 30.683 24.963 55.646 55.646 55.646s55.647-24.962 55.647-55.646-24.964-55.646-55.647-55.646zM509.425 16.384000000000015c-79.714 0-157.406 27.896-218.755 78.526l-35.611-43.12c71.358-58.904 161.694-91.333 254.365-91.333 93.463 0 184.4 32.934 256.044 92.726l-35.829 42.928c-61.62-51.408-139.819-79.727-220.214-79.727z m343.95 343.95h55.928c0 154.827-90.705 297.158-231.098 362.603l-23.622-50.685c120.758-56.31 198.793-178.734 198.793-311.917zM364.268 672.2529999999999l-23.622 50.685C200.265 657.492 109.56 515.1600000000001 109.56 360.33500000000004h55.928c0 133.183 78.034 255.621 198.779 311.917z"  horiz-adv-x="1024" />

    
    <glyph glyph-name="systemConfigManager" unicode="&#58904;" d="M446.578 53.988000000000056H273.977a33.052 33.052 0 0 1-33.053-33.053 33.052 33.052 0 0 1 32.996-33.11h172.43a33.11 33.11 0 0 1 0 66.163zM941.51 309.58900000000006a35.1 35.1 0 0 1-34.133 32.143 62.578 62.578 0 0 0-62.578 61.952 69.803 69.803 0 0 0 5.689 24.291 41.13 41.13 0 0 1-15.076 49.835l-69.518 38.627a44.316 44.316 0 0 1-49.152-11.377 57.4 57.4 0 0 0-61.383-25.032 59.563 59.563 0 0 0-36.75 27.478 44.089 44.089 0 0 1-49.266 9.273l-71.794-39.823a40.391 40.391 0 0 1-13.653-48.867 70.713 70.713 0 0 0 5.689-23.95 62.578 62.578 0 0 0-62.578-62.578h-2.788c-15.36 0-27.704-12.63-31.46-32.256a353.508 353.508 0 0 1-5.688-55.069 341.333 341.333 0 0 1 5.689-54.727 34.76 34.76 0 0 1 34.133-32.199 62.578 62.578 0 0 0 62.578-61.952 71.282 71.282 0 0 0-5.689-24.291 40.903 40.903 0 0 1 14.962-49.892l68.267-38.115a92.274 92.274 0 0 1 16.611-3.3 43.861 43.861 0 0 1 31.573 13.653 94.606 94.606 0 0 0 50.518 29.753 93.525 93.525 0 0 0 51.2-30.663 43.804 43.804 0 0 1 31.858-13.596 42.04 42.04 0 0 1 17.521 3.982l70.543 39.253a40.391 40.391 0 0 1 13.824 48.64 69.461 69.461 0 0 0-5.69 24.064 62.578 62.578 0 0 0 62.578 62.578h2.902c15.303 0 27.59 12.63 31.346 32.256a337.01 337.01 0 0 1 5.688 55.068 347.022 347.022 0 0 1-5.688 54.67zM792.235 84.93499999999995l-48.356-26.51a176.81 176.81 0 0 1-18.773 16.213 97.678 97.678 0 0 1-57.458 22.756h-0.512a97.849 97.849 0 0 1-56.548-21.732 182.955 182.955 0 0 1-19.399-16.611l-46.023 25.713a110.364 110.364 0 0 1 5.974 32.484 103.253 103.253 0 0 1-90.51 102.4 194.617 194.617 0 0 0 0 69.803 103.083 103.083 0 0 1 90.566 102.4 110.25 110.25 0 0 1-5.688 32.028l49.891 27.136a151.836 151.836 0 0 1 18.375-15.246 83.968 83.968 0 0 1 111.958-1.081 157.525 157.525 0 0 1 19.285 15.929l47.445-26.681a105.7 105.7 0 0 1-5.689-32.37 102.4 102.4 0 0 1 90.454-102.4 189.554 189.554 0 0 0 0-69.802 103.026 103.026 0 0 1-90.51-102.4 110.137 110.137 0 0 1 5.688-32.2zM670.663 366.82000000000005h-1.479a112.924 112.924 0 0 1-1.308-225.85h2.787a112.924 112.924 0 0 1 0 225.85zM667.876 194.89999999999998a61.212 61.212 0 0 0-4.324 122.255h4.38a61.156 61.156 0 1 0 0-122.255zM380.985 167.822a32.996 32.996 0 0 1-32.996 33.166H159.46V677.262h672.427v-163.954a33.052 33.052 0 1 1 66.105 0V710.315a33.052 33.052 0 0 1-33.052 33.052H126.407a33.052 33.052 0 0 1-33.052-33.052v-542.493a33.052 33.052 0 0 1 33.052-33.052h221.867a33.052 33.052 0 0 1 32.995 33.052z"  horiz-adv-x="1024" />

    
    <glyph glyph-name="systemCategoryManager" unicode="&#58889;" d="M401.067 725.333c17.066 0 29.866-4.266 38.4-17.066 12.8-12.8 17.066-25.6 17.066-38.4V448c0-17.067-4.266-29.867-17.066-38.4-12.8-12.8-25.6-17.067-38.4-17.067h-217.6c-17.067 0-29.867 4.267-38.4 17.067-12.8 12.8-17.067 29.867-17.067 42.667V674.133c0 17.067 4.267 29.867 17.067 38.4 8.533 8.534 21.333 12.8 38.4 12.8h217.6z m0-439.466c17.066 0 29.866-4.267 38.4-17.067 12.8-12.8 17.066-25.6 17.066-38.4v-221.867c0-17.066-4.266-29.866-17.066-38.4-8.534-8.533-21.334-12.8-38.4-12.8h-217.6c-17.067 0-29.867 4.267-38.4 17.067-12.8 8.533-17.067 21.333-17.067 38.4V234.66700000000003c0 17.066 4.267 29.866 17.067 38.4 12.8 12.8 25.6 17.066 38.4 17.066h217.6z m439.466 0c17.067 0 29.867-4.267 38.4-17.067C891.733 256 896 243.20000000000005 896 230.39999999999998v-221.867c0-17.066-4.267-29.866-17.067-38.4-12.8-12.8-25.6-17.066-38.4-17.066H618.667c-17.067 0-29.867 4.266-38.4 17.066-12.8 12.8-17.067 25.6-17.067 38.4V230.39999999999998c0 17.067 4.267 29.867 17.067 38.4 12.8 12.8 25.6 17.067 38.4 17.067h221.866z m123.734 345.6c12.8-12.8 17.066-25.6 17.066-42.667s-4.266-29.867-17.066-42.667L802.133 384c-12.8-12.8-25.6-17.067-42.666-17.067S729.6 371.20000000000005 716.8 384L554.667 546.133c-12.8 12.8-17.067 25.6-17.067 42.667s4.267 29.867 17.067 42.667L716.8 793.6c12.8 12.8 25.6 17.067 42.667 17.067s29.866-4.267 42.666-17.067l162.134-162.133z"  horiz-adv-x="1024" />

    
    <glyph glyph-name="typeManager" unicode="&#58890;" d="M288 224c35.346 0 64-28.654 64-64v-96c0-35.346-28.654-64-64-64h-96c-35.346 0-64 28.654-64 64v96c0 35.346 28.654 64 64 64h96z m272 0c35.346 0 64-28.654 64-64v-96c0-35.346-28.654-64-64-64h-96c-35.346 0-64 28.654-64 64v96c0 35.346 28.654 64 64 64h96z m272 0c35.346 0 64-28.654 64-64v-96c0-35.346-28.654-64-64-64h-96c-35.346 0-64 28.654-64 64v96c0 35.346 28.654 64 64 64h96zM288 496c35.346 0 64-28.654 64-64v-96c0-35.346-28.654-64-64-64h-96c-35.346 0-64 28.654-64 64v96c0 35.346 28.654 64 64 64h96z m272 0c35.346 0 64-28.654 64-64v-96c0-35.346-28.654-64-64-64h-96c-35.346 0-64 28.654-64 64v96c0 35.346 28.654 64 64 64h96z m272 0c35.346 0 64-28.654 64-64v-96c0-35.346-28.654-64-64-64h-96c-35.346 0-64 28.654-64 64v96c0 35.346 28.654 64 64 64h96zM288 768c35.346 0 64-28.654 64-64v-96c0-35.346-28.654-64-64-64h-96c-35.346 0-64 28.654-64 64v96c0 35.346 28.654 64 64 64h96z m272 0c35.346 0 64-28.654 64-64v-96c0-35.346-28.654-64-64-64h-96c-35.346 0-64 28.654-64 64v96c0 35.346 28.654 64 64 64h96z m272 0c35.346 0 64-28.654 64-64v-96c0-35.346-28.654-64-64-64h-96c-35.346 0-64 28.654-64 64v96c0 35.346 28.654 64 64 64h96z"  horiz-adv-x="1024" />

    
    <glyph glyph-name="platformCategoryManager" unicode="&#58891;" d="M949.76 537.6h-44.8L770.56 816.64c-14.08 30.72-51.2 43.52-81.92 29.44L64 546.56c-30.72-14.08-43.52-51.2-29.44-81.92L179.2 161.27999999999997V-38.39999999999998c0-25.6 20.48-46.08 46.08-46.08h723.2c25.6 0 46.08 20.48 46.08 46.08V491.52c1.28 25.6-19.2 46.08-44.8 46.08zM69.12 481.28c-5.12 11.52 0 25.6 10.24 30.72L705.28 811.52c5.12 2.56 11.52 2.56 17.92 1.28 6.4-2.56 10.24-6.4 12.8-11.52L861.44 537.6H226.56c-25.6 0-46.08-20.48-46.08-46.08v-240.64L69.12 481.28z m888.32-518.4c0-3.84-3.84-7.68-7.68-7.68h-723.2c-3.84 0-7.68 3.84-7.68 7.68V491.52c0 3.84 3.84 7.68 7.68 7.68h723.2c3.84 0 7.68-3.84 7.68-7.68v-528.64zM669.44 336.64c-5.12 8.96-16.64 12.8-25.6 7.68L377.6 204.79999999999995c-8.96-5.12-12.8-16.64-7.68-25.6 3.84-6.4 10.24-10.24 16.64-10.24 2.56 0 6.4 1.28 8.96 2.56l264.96 139.52c10.24 3.84 14.08 15.36 8.96 25.6z m113.92-64L518.4 121.60000000000002c-8.96-5.12-12.8-16.64-7.68-25.6 3.84-6.4 10.24-10.24 16.64-10.24 3.84 0 6.4 1.28 8.96 2.56l264.96 151.04c8.96 5.12 12.8 16.64 7.68 25.6-5.12 10.24-16.64 12.8-25.6 7.68z"  horiz-adv-x="1024" />

    
    <glyph glyph-name="storeManager" unicode="&#58892;" d="M993.472 518.336c3.413-23.893-0.341-46.763-11.264-68.608-10.923-21.845-28.672-39.594-53.248-53.248v-340.991c0-19.798-3.413-37.718-10.24-53.761-6.826-16.042-16.213-29.866-28.16-41.472-11.946-11.605-25.6-20.65-40.96-27.136-15.359-6.485-31.573-9.729-48.64-9.729H225.472c-18.432 0-35.499 3.243-51.2 9.729-15.702 6.485-29.525 15.53-41.472 27.136s-21.163 25.43-27.648 41.472c-6.485 16.043-9.728 33.963-9.728 53.761v340.99c-23.893 14.337-41.643 32.257-53.248 53.761s-15.36 44.203-11.264 68.096l51.2 246.784c3.414 16.384 11.435 30.208 24.064 41.472 12.629 11.264 27.478 16.896 44.544 16.896h719.872c20.48 0 37.376-5.632 50.688-16.896 13.312-11.264 21.675-25.088 25.088-41.472l47.104-246.784zM863.424 366.784c-9.558-2.048-19.456-3.072-29.696-3.072-21.845 0-42.325 3.926-61.439 11.776-19.115 7.851-36.011 18.603-50.688 32.256-14.677 13.653-26.282 29.696-34.815 48.128-8.534 18.432-13.142 38.229-13.824 59.392-0.683-21.163-5.12-40.96-13.313-59.392-8.191-18.432-19.456-34.475-33.792-48.128s-31.061-24.405-50.176-32.256c-19.114-7.851-39.595-11.776-61.439-11.776-21.846 0-42.496 4.096-61.952 12.288s-36.353 19.285-50.688 33.28c-14.336 13.994-25.6 30.379-33.792 49.151-8.191 18.773-12.288 38.742-12.288 59.904 0-21.163-4.438-41.13-13.312-59.904-8.875-18.773-20.821-35.157-35.84-49.151-15.019-13.995-32.598-25.088-52.736-33.28s-41.131-12.288-62.976-12.288c-10.24 0-20.48 1.024-30.72 3.072V248c0-8.192 1.877-16.384 5.632-24.576 3.754-8.191 8.704-15.359 14.848-21.504 6.144-6.144 12.971-11.093 20.48-14.848s15.019-5.632 22.528-5.632H800.96c6.826 0 13.994 1.706 21.504 5.119a81.262 81.262 0 0 1 20.479 13.313c6.145 5.461 11.094 12.117 14.849 19.968s5.632 15.872 5.632 24.064v122.88z"  horiz-adv-x="1024" />

    
    <glyph glyph-name="platformManager" unicode="&#58888;" d="M56.78 213.65800000000002l74.702-39.68-32.103-17.152L501.3-56.678c7.68-4.096 17.101-4.096 24.627-0.103l398.592 213.402-32 16.896 74.65 39.987 31.488-16.64c15.718-8.5 25.395-23.654 25.344-40.14a45.67 45.67 0 0 0-25.344-40.09l-433.1-231.936c-32-16.896-71.68-16.896-103.68 0L25.343 116.63400000000001A45.875 45.875 0 0 0 0 156.67200000000003c0 16.538 9.626 31.744 25.344 40.14l31.437 16.794z m0 204.646l74.702-39.629-32.103-17.203L501.3 148.019c7.68-4.096 17.101-4.096 24.627-0.102l398.592 213.35-32 16.896 74.65 40.039 31.488-16.64c15.718-8.55 25.395-23.706 25.344-40.09a45.824 45.824 0 0 0-25.344-40.192l-433.1-231.782a111.616 111.616 0 0 0-103.68 0L25.343 321.28A45.875 45.875 0 0 0 0 361.472c0 16.435 9.626 31.744 25.344 40.09l31.437 16.742zM561.153 882.227l437.504-249.6c15.718-9.216 25.395-25.6 25.344-43.315 0-17.971-9.728-34.56-25.344-43.366l-433.1-250.266a104.448 104.448 0 0 0-103.68 0L25.343 545.946A50.022 50.022 0 0 0 0 589.312a49.92 49.92 0 0 0 25.344 43.264l432.128 249.6c32 18.432 71.68 18.432 103.68 0v0.051z"  horiz-adv-x="1024" />

    


  </font>
</defs>
</svg>
